<svg width="188" height="52" viewBox="0 0 188 52" fill="none" xmlns="http://www.w3.org/2000/svg">
<path d="M85.92 11V12.8L70.2 11H85.92ZM85.92 14.84V16.64L70.2 14.84H85.92ZM85.92 18.68V20.48L70.2 18.68H85.92ZM85.92 22.52V24.32L70.2 22.52H85.92ZM85.92 26.36V28.16L70.2 26.36H85.92ZM85.92 30.2V32L70.2 30.2H85.92ZM85.92 34.08V35.88L70.2 34.08H85.92ZM100.12 36V26.8H99.68L96.36 36H87.12V11H95.08L94.36 24.96H94.6L99.8 11H105.84V24.96H106.08L110.36 11H118.32L110.2 36H100.12ZM140.567 26.72H134.087L132.487 36H124.887L129.287 11H144.887L142.767 17.4H135.727L135.167 20.76H141.647L140.567 26.72ZM123.687 35.88L106.727 34.08H124.007L123.687 35.88ZM125.047 28.16L108.087 26.36H125.367L125.047 28.16ZM125.727 24.32L108.767 22.52H126.047L125.727 24.32ZM126.407 20.48L109.447 18.68H126.727L126.407 20.48ZM127.087 16.64L110.127 14.84H127.367L127.087 16.64ZM124.367 32L107.407 30.2H124.687L124.367 32ZM127.727 12.8L110.807 11H128.047L127.727 12.8ZM151.047 23.32C150.994 23.5333 150.941 23.8267 150.887 24.2L135.167 22.52H151.167L151.047 23.32ZM150.607 26.36C150.527 26.9733 150.487 27.5333 150.487 28.04L134.727 26.36H150.607ZM152.127 18.68L151.647 20.32L136.127 18.68H152.127ZM150.527 30.2C150.634 30.9467 150.727 31.5067 150.807 31.88L135.247 30.2H150.527ZM153.767 14.84C153.394 15.5333 153.127 16.0667 152.967 16.44L138.007 14.84H153.767ZM151.727 34.08C152.074 34.6933 152.474 35.1867 152.927 35.56L139.087 34.08H151.727ZM157.567 11C156.794 11.48 156.194 11.92 155.767 12.32L143.527 11H157.567ZM161.087 36.6C157.727 36.6 155.314 35.9467 153.847 34.64C152.407 33.3333 151.687 31.32 151.687 28.6C151.687 27.4533 151.874 25.76 152.247 23.52C153.047 18.9333 154.421 15.6 156.367 13.52C158.341 11.44 161.447 10.4 165.687 10.4C166.674 10.4 167.794 10.5067 169.047 10.72C170.327 10.9067 171.261 11.1467 171.847 11.44L169.607 17.56C168.034 17.1867 166.554 17 165.167 17C163.807 17 162.834 17.1333 162.247 17.4C161.661 17.6667 161.301 18.2 161.167 19L159.327 29.48C160.287 29.6933 161.274 29.8 162.287 29.8C164.447 29.8 166.421 29.48 168.207 28.84L167.567 35.56C165.861 36.2533 163.701 36.6 161.087 36.6Z" fill="#F3F2F2"/>
<ellipse cx="12.5195" cy="14.4071" rx="9.08542" ry="12.1183" transform="rotate(18.8905 12.5195 14.4071)" fill="#EFEEEE"/>
<ellipse cx="54.0672" cy="28.6244" rx="9.08542" ry="12.1183" transform="rotate(18.8905 54.0672 28.6244)" fill="#EFEEEE"/>
<rect width="25.742" height="8.38959" transform="matrix(0.946139 0.323761 0.323761 -0.946139 19.9084 20.8766)" fill="#EFEEEE"/>
</svg>
